# xmcd
#
# Track frame offsets: 
#        150
#        23610
#        48631
#        65090
#        87830
#        127723
#        149760
#
# Disc length: 2173 seconds
#
# Revision: 1
# Processed by: cddbd v1.5.2PL0 Copyright (c) Steve Scherf et al.
# Submitted via: ExactAudioCopy v1.0b3
#
DISCID=5e087b07
DTITLE=佐野元春 - HEARTLAND (紙ジャケット仕様) Disc 2 MHCL-707-708
DYEAR=2005
DGENRE=JPop
TTITLE0=勝手にしなよ
TTITLE1=奇妙な日々
TTITLE2=プリーズ・ドント・テル・ミー・ア・ライ
TTITLE3=99ブルース
TTITLE4=ロックンロール・ナイト
TTITLE5=サムデイ
TTITLE6=ガラスのジェネレーション
EXTD=YEAR: 1988
EXTT0=
EXTT1=
EXTT2=
EXTT3=
EXTT4=
EXTT5=
EXTT6=
PLAYORDER=
